<svg width="24" height="25" viewBox="0 0 24 25" fill="none" xmlns="http://www.w3.org/2000/svg">
<path d="M6.375 18.8745C5.32663 18.8745 4.80245 18.8745 4.38896 18.7032C3.83765 18.4749 3.39963 18.0369 3.17127 17.4855C3 17.0721 3 16.5479 3 15.4995V12.1245C3 11.0761 3 10.552 3.17127 10.1385C3.39963 9.58716 3.83765 9.14914 4.38896 8.92078C4.80245 8.74951 5.32663 8.74951 6.375 8.74951M6.375 18.8745C7.42337 18.8745 7.94755 18.8745 8.36104 18.7032C8.91235 18.4749 9.35037 18.0369 9.57873 17.4855C9.75 17.0721 9.75 16.5479 9.75 15.4995V12.1245C9.75 11.0761 9.75 10.552 9.57873 10.1385C9.35037 9.58716 8.91235 9.14914 8.36104 8.92078C7.94755 8.74951 7.42337 8.74951 6.375 8.74951M6.375 18.8745V21.1245M6.375 8.74951V3.12451M17.625 5.37451C18.6734 5.37451 19.1976 5.37451 19.611 5.54578C20.1624 5.77414 20.6004 6.21216 20.8287 6.76347C21 7.17696 21 7.70114 21 8.74951V12.1245C21 13.1729 21 13.6971 20.8287 14.1105C20.6004 14.6619 20.1624 15.0999 19.611 15.3282C19.1976 15.4995 18.6734 15.4995 17.625 15.4995M17.625 5.37451C16.5766 5.37451 16.0524 5.37451 15.639 5.54578C15.0876 5.77414 14.6496 6.21216 14.4213 6.76347C14.25 7.17696 14.25 7.70114 14.25 8.74951V12.1245C14.25 13.1729 14.25 13.6971 14.4213 14.1105C14.6496 14.6619 15.0876 15.0999 15.639 15.3282C16.0524 15.4995 16.5766 15.4995 17.625 15.4995M17.625 5.37451V3.12451M17.625 15.4995V21.1245" stroke="#666666" stroke-width="1.5" stroke-miterlimit="10" stroke-linecap="round" stroke-linejoin="round"/>
</svg>
