<svg width="24" height="25" viewBox="0 0 24 25" fill="none" xmlns="http://www.w3.org/2000/svg">
<path d="M13.1014 18.5733L12.6883 19.1994L13.1014 18.5733ZM10.8986 18.5733L11.3116 19.1994L10.8986 18.5733ZM12 18.0447V18.7947V18.0447ZM7.10136 21.0785L6.68835 20.4524H6.68835L7.10136 21.0785ZM16.8986 21.0785L17.3116 20.4524L16.8986 21.0785ZM12.75 9.12451C12.75 8.7103 12.4142 8.37451 12 8.37451C11.5858 8.37451 11.25 8.7103 11.25 9.12451H12H12.75ZM11.25 13.1245C11.25 13.5387 11.5858 13.8745 12 13.8745C12.4142 13.8745 12.75 13.5387 12.75 13.1245H12H11.25ZM14 11.8745C14.4142 11.8745 14.75 11.5387 14.75 11.1245C14.75 10.7103 14.4142 10.3745 14 10.3745V11.1245V11.8745ZM10 10.3745C9.58579 10.3745 9.25 10.7103 9.25 11.1245C9.25 11.5387 9.58579 11.8745 10 11.8745V11.1245V10.3745ZM20 11.1245H19.25V19.409H20H20.75V11.1245H20ZM4 19.409H4.75V11.1245H4H3.25V19.409H4ZM16.8986 21.0785L17.3116 20.4524L13.5144 17.9473L13.1014 18.5733L12.6883 19.1994L16.4856 21.7045L16.8986 21.0785ZM10.8986 18.5733L10.4856 17.9473L6.68835 20.4524L7.10136 21.0785L7.51437 21.7045L11.3116 19.1994L10.8986 18.5733ZM13.1014 18.5733L13.5144 17.9473C13.2608 17.78 13.0217 17.621 12.8063 17.5101C12.5748 17.3909 12.3121 17.2947 12 17.2947V18.0447V18.7947C12.0004 18.7947 12.0006 18.7947 12.0014 18.7949C12.0024 18.795 12.0062 18.7956 12.0138 18.7978C12.0301 18.8026 12.0625 18.8143 12.1195 18.8437C12.2463 18.909 12.4078 19.0143 12.6883 19.1994L13.1014 18.5733ZM10.8986 18.5733L11.3116 19.1994C11.5922 19.0143 11.7537 18.909 11.8805 18.8437C11.9375 18.8143 11.9699 18.8026 11.9862 18.7978C11.9938 18.7956 11.9976 18.795 11.9986 18.7949C11.9994 18.7947 11.9996 18.7947 12 18.7947V18.0447V17.2947C11.6879 17.2947 11.4252 17.3909 11.1937 17.5101C10.9783 17.621 10.7392 17.78 10.4856 17.9473L10.8986 18.5733ZM4 19.409H3.25C3.25 20.2019 3.24801 20.8829 3.32382 21.3955C3.39984 21.9095 3.58641 22.4933 4.17053 22.8077L4.52602 22.1473L4.8815 21.4869C4.93961 21.5182 4.86317 21.5512 4.80768 21.176C4.75199 20.7995 4.75 20.2529 4.75 19.409H4ZM7.10136 21.0785L6.68835 20.4524C5.98398 20.9171 5.52661 21.2165 5.18164 21.3773C4.83793 21.5376 4.8234 21.4556 4.8815 21.4869L4.52602 22.1473L4.17053 22.8077C4.75465 23.1221 5.34468 22.9564 5.81559 22.7368C6.28524 22.5178 6.85253 22.1411 7.51437 21.7045L7.10136 21.0785ZM20 19.409H19.25C19.25 20.2529 19.248 20.7995 19.1923 21.176C19.1368 21.5512 19.0604 21.5182 19.1185 21.4869L19.474 22.1473L19.8295 22.8077C20.4136 22.4933 20.6002 21.9095 20.6762 21.3955C20.752 20.8829 20.75 20.2019 20.75 19.409H20ZM16.8986 21.0785L16.4856 21.7045C17.1475 22.1411 17.7148 22.5178 18.1844 22.7368C18.6553 22.9564 19.2453 23.1221 19.8295 22.8077L19.474 22.1473L19.1185 21.4869C19.1766 21.4556 19.1621 21.5376 18.8184 21.3773C18.4734 21.2165 18.016 20.9171 17.3116 20.4524L16.8986 21.0785ZM12 3.12451V3.87451C13.9068 3.87451 15.2615 3.8761 16.2892 4.01427C17.2952 4.14954 17.8749 4.40321 18.2981 4.82641L18.8284 4.29608L19.3588 3.76575C18.6104 3.01739 17.6614 2.68527 16.489 2.52765C15.3382 2.37292 13.8644 2.37451 12 2.37451V3.12451ZM20 11.1245H20.75C20.75 9.2601 20.7516 7.78634 20.5969 6.63549C20.4392 5.46307 20.1071 4.51412 19.3588 3.76575L18.8284 4.29608L18.2981 4.82641C18.7213 5.24962 18.975 5.82927 19.1102 6.83536C19.2484 7.86302 19.25 9.21769 19.25 11.1245H20ZM12 3.12451V2.37451C10.1356 2.37451 8.66182 2.37292 7.51098 2.52765C6.33856 2.68527 5.38961 3.01739 4.64124 3.76575L5.17157 4.29608L5.7019 4.82641C6.12511 4.40321 6.70476 4.14954 7.71085 4.01427C8.73851 3.8761 10.0932 3.87451 12 3.87451V3.12451ZM4 11.1245H4.75C4.75 9.21769 4.75159 7.86302 4.88976 6.83536C5.02502 5.82927 5.27869 5.24962 5.7019 4.82641L5.17157 4.29608L4.64124 3.76575C3.89288 4.51412 3.56076 5.46307 3.40313 6.63549C3.24841 7.78634 3.25 9.2601 3.25 11.1245H4ZM12 9.12451H11.25V11.1245H12H12.75V9.12451H12ZM12 11.1245H11.25V13.1245H12H12.75V11.1245H12ZM14 11.1245V10.3745H12V11.1245V11.8745H14V11.1245ZM12 11.1245V10.3745H10V11.1245V11.8745H12V11.1245Z" fill="#1F2023"/>
</svg>
