<svg width="233" height="160" viewBox="0 0 233 160" fill="none" xmlns="http://www.w3.org/2000/svg">
<g clip-path="url(#clip0_213_2074)">
<rect width="232.727" height="160" rx="14.5455" fill="#EDEDED"/>
<path d="M136 86C136 96 132 100 122 100H110C100 100 96 96 96 86V74C96 64 100 60 110 60H122C132 60 136 64 136 74V86ZM136 86L129.54 82.3716C128.075 81.5486 126.251 81.7292 124.976 82.8236L118.78 88.1411C117.22 89.4811 114.7 89.4811 113.14 88.1411L112.48 87.5611C111.06 86.3411 108.78 86.2211 107.2 87.2811L97.3398 93.9011M114 72C114 74.2091 112.209 76 110 76C107.791 76 106 74.2091 106 72C106 69.7909 107.791 68 110 68C112.209 68 114 69.7909 114 72Z" stroke="#666666" stroke-width="1.5" stroke-linecap="round" stroke-linejoin="round"/>
</g>
<defs>
<clipPath id="clip0_213_2074">
<rect width="232.727" height="160" rx="14.5455" fill="white"/>
</clipPath>
</defs>
</svg>
