<svg width="118" height="30" viewBox="0 0 118 30" fill="none" xmlns="http://www.w3.org/2000/svg">
<path d="M61.8739 12.9496C60.8442 20.9895 66.1009 28.267 74.034 29.7815C75.6125 30.082 79.2539 29.9842 80.6664 29.6047C83.3603 28.8783 85.1941 27.872 87.0961 26.0741L88.4579 24.7862L86.6731 23.1789C85.6906 22.2946 84.7868 21.5339 84.6645 21.4875C84.5421 21.4411 83.9617 21.8309 83.3743 22.3512C82.1803 23.4125 80.2731 24.4016 78.8763 24.6849C74.0654 25.6586 69.1916 22.5315 67.891 17.6393C67.5169 16.2312 67.5204 13.8065 67.8997 12.2524C68.6969 8.98287 71.417 6.19243 74.5829 5.39394C77.7558 4.59544 81.1524 5.45232 83.5824 7.66063L84.577 8.5656L86.5245 6.73335L88.4719 4.89938L87.8968 4.3121C86.3584 2.7443 83.5456 1.12155 81.2573 0.481037C78.4568 -0.302005 74.1808 -0.111393 71.375 0.924076C66.246 2.81471 62.5784 7.458 61.8739 12.9496Z" fill="#072849"/>
<path d="M95.7827 25.6448C97.9661 27.769 100.672 29.2166 103.49 29.7695C105.193 30.1027 107.866 30.0717 109.721 29.6957C111.57 29.3196 113.951 28.2841 115.367 27.2367C116.469 26.4227 118 25.0541 118 24.8841C118 24.8223 117.133 23.9757 116.073 23.0021L114.145 21.2333L113.053 22.2379C111.231 23.9105 108.93 24.8635 106.705 24.8704C102.485 24.8807 98.5535 21.8481 97.4644 17.7371C97.1095 16.3994 97.1148 13.4716 97.4749 12.103C98.571 7.92337 102.188 5.12433 106.49 5.12433C109.149 5.12433 111.133 5.86959 113.039 7.58507L114.173 8.60509L116.042 6.82264C117.072 5.84041 117.935 4.99039 117.963 4.93201C118.024 4.80494 116.575 3.4226 115.724 2.79754C114.68 2.02823 112.072 0.82104 110.679 0.463863C109.899 0.261234 108.478 0.080931 107.249 0.0259808C103.684 -0.135436 100.835 0.597807 98.0885 2.38197C94.9366 4.42715 92.7706 7.38932 91.7497 11.0487C91.1938 13.044 91.192 16.8064 91.748 18.8276C92.5101 21.606 93.7059 23.6254 95.7827 25.6448Z" fill="#072849"/>
<path d="M39.6829 14.8832C39.6829 22.8956 39.7353 29.5034 39.8 29.5669C39.8664 29.6304 44.3696 29.6631 49.8081 29.639L59.6992 29.5944L59.7481 27.0615L59.7953 24.5286H52.537H45.2769V12.4224V0.316187H42.4799H39.6829V14.8832Z" fill="#072849"/>
<path d="M0 0.316406V15.0001V29.6822L13.8541 29.6392L27.7081 29.5946L27.7571 27.1493L27.8043 24.7023L16.4815 24.6594L5.15704 24.6147L5.11158 12.4656L5.06788 0.316406H2.53307H0Z" fill="#466E97"/>
<path d="M11.5378 9.56007C11.5378 14.6447 11.5902 18.857 11.6567 18.9205C11.7213 18.9858 15.3592 19.0167 19.7418 18.9926L27.7081 18.948L27.7571 16.501L27.8043 14.054H22.2941H16.7822V7.18519V0.316406H14.16H11.5378V9.56007Z" fill="#466E97"/>
</svg>
